# xmcd
# 
# Track frame offsets:
#     150
#     12179
#     21300
#     34400
#     53592
#     69532
#     81438
#     92987
#     104803
#     116828
#     130028
#     140084
#     161277
#     179168
#     198034
#     209577
#     221207
#     233187
#     244139
#     257113
#     270788
# 
# Disc length: 3751
# 
# Revision: 0
# Processed by: cddbd v1.5.2PL0 Copyright (c) Steve Scherf et al.
# Submitted via: fre:ac v1.0.31
# 
DISCID=3e0ea515
DTITLE=Country Moods and Memories D1 - Disc 1
DYEAR=0
DGENRE=Country
TTITLE0=Eddie Arnold - Make The World Go Away
TTITLE1=Charlie Pride - Kiss An Angel Good Mornin'
TTITLE2=Dolly Parton - I Will Always Love You
TTITLE3=Vince Gill - When I Call Your Name
TTITLE4=Randy Travis - Forever And Ever, Amen
TTITLE5=Crystal Gayle - Don't It Make My Brown Eyes Blue
TTITLE6=Freddy Fender - Before The Next Teardrop Falls
TTITLE7=Johnny Cash - Ring Of Fire
TTITLE8=Tammy Wynette - Stand By Your Man
TTITLE9=Waylon Jennings - Amanda
TTITLE10=The Statler Brothers - Do You Know You Are My Sunshine
TTITLE11=Gary Morris - The Wind Beneath My Wings
TTITLE12=Linda Ronstadt - Crazy
TTITLE13=Glen Campbell - Still Within The Sound Of My Voice
TTITLE14=Sammi Smith - Help Me Make It Through The Night
TTITLE15=Don Gibson - I Can't Stop Loving You
TTITLE16=Marie Osmond - Paper Roses
TTITLE17=Conway Twitty - Hello Darlin'
TTITLE18=Hank Williams, Sr. - Jambalaya (On The Bayou)
TTITLE19=Patti Page - The Tennessee Waltz
TTITLE20=Jimmie Rodgers - Kisses Sweeter Than Wine
EXTD=
EXTT0=
EXTT1=
EXTT2=
EXTT3=
EXTT4=
EXTT5=
EXTT6=
EXTT7=
EXTT8=
EXTT9=
EXTT10=
EXTT11=
EXTT12=
EXTT13=
EXTT14=
EXTT15=
EXTT16=
EXTT17=
EXTT18=
EXTT19=
EXTT20=
PLAYORDER=
